<svg width="512" height="512" viewBox="0 0 512 512" fill="none" xmlns="http://www.w3.org/2000/svg">
<g id="arm">
<g id="arm_2">
<path id="fill" d="M242.431 202.571C242.656 201.386 242.916 200.074 243.198 198.647C245.763 185.698 250.194 163.329 247.457 141.311C242.611 118.616 238.698 104.658 235.638 99.5468L242.431 202.571ZM242.431 202.571C240.121 214.746 234.58 231.72 226.317 249.773L242.431 202.571ZM233.89 101.541C235.158 103.955 236.693 108.214 238.472 114.514C240.411 121.384 242.581 130.453 244.989 141.727C247.646 163.28 243.31 185.197 240.747 198.155C240.464 199.584 240.202 200.905 239.975 202.104L239.974 202.105C237.712 214.03 232.248 230.807 224.044 248.732L225.097 251.954L276.354 280.639L279.894 279.39C282.854 272.031 285.647 263.245 287.614 256.926L287.615 256.924C294.93 233.368 297.061 205.571 296.534 175.823L296.533 175.811C296.335 166.994 295.979 158.024 295.409 148.894C294.577 131.391 293.964 118.201 293.578 109.323C293.385 104.881 293.249 101.525 293.17 99.2494C293.131 98.1099 293.107 97.2531 293.096 96.6706C293.093 96.448 293.091 96.2758 293.091 96.1485C296.87 84.0103 298.827 74.8651 298.793 68.9887L298.793 68.9711C298.788 68.5942 298.791 68.1613 298.794 67.6799C298.824 63.1026 298.884 54.1386 292.614 47.2304L292.608 47.2233L292.542 47.1512C292.541 47.1509 292.541 47.1507 292.541 47.1505C292.517 47.1246 292.492 47.0969 292.465 47.0675C291.52 46.0281 288.717 42.9475 284.432 43.1815C283.146 43.2283 281.783 43.729 280.482 44.3579C279.573 44.7969 278.578 45.3572 277.502 46.023C274.716 43.5733 271.45 42.139 267.784 41.815C266.937 41.7367 266.082 41.8985 265.321 42.1225C264.529 42.3557 263.671 42.7079 262.763 43.1475C261.305 43.8536 259.601 44.8445 257.67 46.1009C254.71 44.1493 251.542 43.1762 248.257 43.6185C246.482 43.8475 244.691 45.0097 243.016 46.3971C241.633 47.5424 240.086 49.0515 238.377 50.8968C235.367 48.8497 232.671 47.3959 230.317 46.6467C227.521 45.7571 224.568 45.6888 222.376 47.7088L222.371 47.7133C218.719 51.0969 217.229 55.7783 217.542 61.3362C217.799 65.9146 219.277 71.1921 221.841 77.1253C213.29 77.2001 206.039 77.652 200.111 78.5352L200.111 78.5351L200.098 78.5373C197.869 78.8821 193.594 80.1099 189.818 82.2449C186.21 84.2849 182.062 87.7364 182.069 92.8546C182.061 93.5632 182.244 94.3393 182.49 95.0299C182.758 95.7797 183.166 96.6137 183.739 97.4285C184.895 99.0689 186.788 100.708 189.585 101.269C191.054 101.571 192.516 101.201 193.681 100.811C194.569 100.514 195.574 100.096 196.574 99.6806C196.912 99.54 197.25 99.3996 197.583 99.2642C200.339 98.1416 203.546 97.0056 207.467 96.8857C210.419 96.7999 215.321 97.2424 220.52 98.1328C225.359 98.9615 230.25 100.144 233.89 101.541Z" fill="#FFB7FF" stroke="#DF29AF" stroke-width="5" stroke-linejoin="bevel"/>
</g>
</g>
</svg>
