<svg width="512" height="512" viewBox="0 0 512 512" fill="none" xmlns="http://www.w3.org/2000/svg">
<g id="bg">
<circle id="Ellipse 1" cx="255" cy="255" r="255" fill="#00EF38"/>
<g id="Vector">
<path d="M318.774 54.0859L309.082 54.0615C306.006 54.0615 304.468 53.0931 304.468 51.1562C304.468 48.9753 306.185 47.8848 309.619 47.8848C309.945 47.8848 310.303 47.8929 310.693 47.9092V26.2539C309.277 27.2305 308.358 27.7188 307.935 27.7188C307.023 27.7188 306.226 27.3932 305.542 26.7422C304.875 26.0911 304.541 25.3343 304.541 24.4717C304.541 23.5765 305.086 22.6569 306.177 21.7129L308.936 19.7109L311.914 17.3184C313.135 16.4395 314.315 16 315.454 16C316.919 16 317.651 16.8789 317.651 18.6367C317.651 20.5736 317.57 23.2998 317.407 26.8154C317.244 30.3311 317.163 35.3522 317.163 41.8789V47.7871H318.774C319.718 47.7871 320.508 48.0882 321.143 48.6904C321.794 49.2926 322.119 50.0413 322.119 50.9365C322.119 51.8317 321.794 52.5804 321.143 53.1826C320.508 53.7848 319.718 54.0859 318.774 54.0859Z" fill="#BF0098"/>
<path d="M183.774 54.0859L174.082 54.0615C171.006 54.0615 169.468 53.0931 169.468 51.1562C169.468 48.9753 171.185 47.8848 174.619 47.8848C174.945 47.8848 175.303 47.8929 175.693 47.9092V26.2539C174.277 27.2305 173.358 27.7188 172.935 27.7188C172.023 27.7188 171.226 27.3932 170.542 26.7422C169.875 26.0911 169.541 25.3343 169.541 24.4717C169.541 23.5765 170.086 22.6569 171.177 21.7129L173.936 19.7109L176.914 17.3184C178.135 16.4395 179.315 16 180.454 16C181.919 16 182.651 16.8789 182.651 18.6367C182.651 20.5736 182.57 23.2998 182.407 26.8154C182.244 30.3311 182.163 35.3522 182.163 41.8789V47.7871H183.774C184.718 47.7871 185.508 48.0882 186.143 48.6904C186.794 49.2926 187.119 50.0413 187.119 50.9365C187.119 51.8317 186.794 52.5804 186.143 53.1826C185.508 53.7848 184.718 54.0859 183.774 54.0859Z" fill="#BF0098"/>
<path d="M218.833 54.1104C218.426 54.1104 217.791 54.0452 216.929 53.915C216.082 53.7686 215.472 53.6953 215.098 53.6953L207.92 53.6709C207.301 53.6709 206.366 53.7523 205.112 53.915C203.859 54.0615 202.915 54.1348 202.28 54.1348C202.101 54.1348 201.841 54.1022 201.499 54.0371C201.157 53.972 200.897 53.9395 200.718 53.9395C199.253 53.9395 198.26 53.3454 197.739 52.1572C197.414 51.4085 197.251 50.2529 197.251 48.6904C197.251 45.6468 197.926 43.0996 199.277 41.0488C200.319 39.4701 202.004 37.8913 204.331 36.3125C206.528 34.8639 208.717 33.4235 210.898 31.9912C213.47 30.1195 214.756 27.9954 214.756 25.6191C214.756 25.0007 214.243 24.3903 213.218 23.7881C212.192 23.1696 211.191 22.8604 210.215 22.8604C208.49 22.8604 206.659 23.6335 204.722 25.1797C202.801 26.7096 201.483 27.4746 200.767 27.4746C199.904 27.4746 199.147 27.263 198.496 26.8398C197.682 26.319 197.275 25.5947 197.275 24.667C197.275 23.6742 197.682 22.8197 198.496 22.1035C200.465 20.362 202.183 19.0924 203.647 18.2949C205.763 17.1393 207.952 16.5615 210.215 16.5615C213.031 16.5615 215.57 17.3021 217.832 18.7832C220.42 20.4759 221.714 22.6895 221.714 25.4238C221.714 28.1908 221.079 30.5426 219.81 32.4795C218.817 34.0257 217.246 35.5312 215.098 36.9961C213.063 38.2819 211.029 39.5596 208.994 40.8291C205.902 42.8473 204.242 45.1504 204.014 47.7383C204.909 47.6243 206.227 47.4941 207.969 47.3477C211.436 47.1686 213.918 47.0791 215.415 47.0791C216.815 47.0791 218.198 47.3802 219.565 47.9824C221.258 48.7311 222.104 49.6914 222.104 50.8633C222.104 51.7096 221.803 52.4502 221.201 53.085C220.566 53.7686 219.777 54.1104 218.833 54.1104Z" fill="#BF0098"/>
<path d="M112.774 100.542L103.082 100.517C100.006 100.517 98.4678 99.5487 98.4678 97.6119C98.4678 95.4309 100.185 94.3404 103.619 94.3404C103.945 94.3404 104.303 94.3485 104.693 94.3648V72.7095C103.277 73.6861 102.358 74.1744 101.935 74.1744C101.023 74.1744 100.226 73.8489 99.542 73.1978C98.8747 72.5468 98.541 71.7899 98.541 70.9273C98.541 70.0321 99.0863 69.1125 100.177 68.1685L102.936 66.1666L105.914 63.774C107.135 62.8951 108.315 62.4556 109.454 62.4556C110.919 62.4556 111.651 63.3345 111.651 65.0924C111.651 67.0292 111.57 69.7554 111.407 73.2711C111.244 76.7867 111.163 81.8079 111.163 88.3345V94.2428H112.774C113.718 94.2428 114.508 94.5439 115.143 95.1461C115.794 95.7483 116.119 96.497 116.119 97.3922C116.119 98.2873 115.794 99.036 115.143 99.6383C114.508 100.24 113.718 100.542 112.774 100.542Z" fill="#BF0098"/>
<path d="M138.141 101.469C132.753 101.469 128.847 99.1418 126.422 94.4869C124.632 91.0364 123.736 86.5849 123.736 81.1324C123.736 76.4775 124.916 72.3922 127.276 68.8765C130.108 64.661 133.982 62.5533 138.897 62.5533C143.552 62.5533 147.166 64.4332 149.737 68.1929C151.902 71.3668 152.984 75.1998 152.984 79.692C152.984 86.9511 151.747 92.3954 149.273 96.025C146.799 99.6545 143.089 101.469 138.141 101.469ZM138.873 68.901C136.236 68.901 134.12 70.2112 132.525 72.8316C131.126 75.1103 130.426 77.7551 130.426 80.7662C130.426 84.7375 130.8 87.7974 131.549 89.9459C132.753 93.4127 134.951 95.1461 138.141 95.1461C140.81 95.1461 142.812 93.9335 144.146 91.5084C145.481 89.067 146.148 85.413 146.148 80.5465C146.148 76.6565 145.538 73.7431 144.317 71.8062C143.113 69.8694 141.298 68.901 138.873 68.901Z" fill="#BF0098"/>
<path d="M177.813 87.7486C177.618 87.7486 177.325 87.7242 176.935 87.6754C176.56 87.6103 176.267 87.5777 176.056 87.5777C175.616 87.5777 174.965 87.594 174.103 87.6265C173.256 87.6428 172.605 87.651 172.149 87.651C172.166 88.2043 172.166 88.9286 172.149 89.8238C172.133 90.9631 172.125 91.6793 172.125 91.9722C172.125 92.8023 171.824 93.4941 171.222 94.0474C170.619 94.5845 169.871 94.8531 168.976 94.8531C168.08 94.8531 167.332 94.5845 166.729 94.0474C166.127 93.4941 165.826 92.8023 165.826 91.9722C165.826 92.1838 165.81 90.7841 165.777 87.773C164.557 87.8381 163.491 87.8707 162.579 87.8707C161.424 87.8707 160.398 87.6591 159.503 87.2359C158.38 86.6988 157.818 85.9338 157.818 84.941C157.818 83.6715 158.339 82.8414 159.381 82.4508C159.951 82.2392 161.017 82.1334 162.579 82.1334C163.507 82.1334 164.573 82.1008 165.777 82.0357C165.777 81.873 165.769 81.5474 165.753 81.0592C165.737 80.5709 165.729 80.1721 165.729 79.8629C165.729 76.6077 166.827 74.9801 169.024 74.9801C169.887 74.9801 170.636 75.2486 171.271 75.7857C171.905 76.3065 172.223 76.9739 172.223 77.7877C172.223 78.0481 172.19 78.455 172.125 79.0084C172.076 79.5455 172.052 79.9524 172.052 80.2291L172.076 81.9381C172.451 81.9543 172.735 81.9625 172.931 81.9625C173.256 81.9625 173.744 81.9462 174.396 81.9137C175.063 81.8811 175.567 81.8648 175.909 81.8648C179.229 81.8648 180.89 82.8495 180.89 84.8189C180.89 85.6002 180.613 86.2756 180.06 86.8453C179.457 87.4475 178.709 87.7486 177.813 87.7486Z" fill="#BF0098"/>
<path d="M204.327 100.542L194.635 100.517C191.559 100.517 190.021 99.5487 190.021 97.6119C190.021 95.4309 191.738 94.3404 195.172 94.3404C195.497 94.3404 195.855 94.3485 196.246 94.3648V72.7095C194.83 73.6861 193.91 74.1744 193.487 74.1744C192.576 74.1744 191.778 73.8489 191.095 73.1978C190.427 72.5468 190.094 71.7899 190.094 70.9273C190.094 70.0321 190.639 69.1125 191.729 68.1685L194.488 66.1666L197.467 63.774C198.688 62.8951 199.868 62.4556 201.007 62.4556C202.472 62.4556 203.204 63.3345 203.204 65.0924C203.204 67.0292 203.123 69.7554 202.96 73.2711C202.797 76.7867 202.716 81.8079 202.716 88.3345V94.2428H204.327C205.271 94.2428 206.061 94.5439 206.695 95.1461C207.346 95.7483 207.672 96.497 207.672 97.3922C207.672 98.2873 207.346 99.036 206.695 99.6383C206.061 100.24 205.271 100.542 204.327 100.542Z" fill="#BF0098"/>
<path d="M52.7744 170.719L43.082 170.695C40.0059 170.695 38.4678 169.726 38.4678 167.789C38.4678 165.608 40.1849 164.518 43.6191 164.518C43.9447 164.518 44.3027 164.526 44.6934 164.542V142.887C43.2773 143.864 42.3577 144.352 41.9346 144.352C41.0231 144.352 40.2256 144.026 39.542 143.375C38.8747 142.724 38.541 141.968 38.541 141.105C38.541 140.21 39.0863 139.29 40.1768 138.346L42.9355 136.344L45.9141 133.952C47.1348 133.073 48.3148 132.633 49.4541 132.633C50.9189 132.633 51.6514 133.512 51.6514 135.27C51.6514 137.207 51.57 139.933 51.4072 143.449C51.2445 146.964 51.1631 151.985 51.1631 158.512V164.42H52.7744C53.7184 164.42 54.5078 164.721 55.1426 165.324C55.7936 165.926 56.1191 166.675 56.1191 167.57C56.1191 168.465 55.7936 169.214 55.1426 169.816C54.5078 170.418 53.7184 170.719 52.7744 170.719Z" fill="#BF0098"/>
<path d="M78.1406 171.647C72.7533 171.647 68.847 169.319 66.4219 164.664C64.6315 161.214 63.7363 156.762 63.7363 151.31C63.7363 146.655 64.9163 142.57 67.2764 139.054C70.1084 134.839 73.9821 132.731 78.8975 132.731C83.5524 132.731 87.1657 134.611 89.7373 138.371C91.902 141.544 92.9844 145.377 92.9844 149.87C92.9844 157.129 91.7474 162.573 89.2734 166.203C86.7995 169.832 83.0885 171.647 78.1406 171.647ZM78.873 139.079C76.2363 139.079 74.1204 140.389 72.5254 143.009C71.1257 145.288 70.4258 147.933 70.4258 150.944C70.4258 154.915 70.8001 157.975 71.5488 160.123C72.7533 163.59 74.9505 165.324 78.1406 165.324C80.8099 165.324 82.8119 164.111 84.1465 161.686C85.4811 159.245 86.1484 155.591 86.1484 150.724C86.1484 146.834 85.5381 143.921 84.3174 141.984C83.113 140.047 81.2982 139.079 78.873 139.079Z" fill="#BF0098"/>
<path d="M27.9932 264.211C27.0003 264.553 26.0889 264.814 25.2588 264.993C24.445 265.155 23.7126 265.237 23.0615 265.237C19.79 265.237 16.9336 264.358 14.4922 262.6C11.4974 260.452 10 257.384 10 253.396C10 248.774 11.5299 245.282 14.5898 242.922C17.1615 240.937 20.5062 239.944 24.624 239.944C27.8955 239.944 30.8089 241.205 33.3643 243.728C36.0498 246.365 37.4007 249.555 37.417 253.298C37.4333 257.367 36.6439 261.314 35.0488 265.139C33.3236 269.289 30.9635 272.423 27.9688 274.538C26.7155 275.417 24.7542 276.467 22.085 277.688C19.0251 279.071 16.8604 279.763 15.5908 279.763C14.6305 279.763 13.833 279.421 13.1982 278.738C12.6123 278.103 12.3193 277.362 12.3193 276.516C12.3193 275.214 13.1006 274.221 14.6631 273.538C15.9977 273.114 17.3324 272.683 18.667 272.244C21.0433 271.332 22.9069 270.299 24.2578 269.143C25.625 267.971 26.8701 266.327 27.9932 264.211ZM23.916 245.779C21.5072 245.779 19.7005 246.381 18.4961 247.585C17.2917 248.774 16.6813 250.572 16.665 252.981C16.665 254.934 17.373 256.456 18.7891 257.546C20.0749 258.523 21.735 259.011 23.7695 259.011C24.5833 259.011 25.5436 258.759 26.6504 258.254C27.7734 257.75 29.043 256.993 30.459 255.984C30.6217 254.844 30.7031 253.949 30.7031 253.298C30.6868 251.589 29.9137 249.897 28.3838 248.22C26.8701 246.593 25.3809 245.779 23.916 245.779Z" fill="#BF0098"/>
<path d="M45.6963 351.905C42.083 351.905 39.1208 351.14 36.8096 349.61C34.124 347.82 32.7568 345.207 32.708 341.773C32.6266 336.972 34.2054 333.529 37.4443 331.446C35.0843 329.574 33.9043 327.222 33.9043 324.39C33.9043 321.184 35.125 318.523 37.5664 316.407C39.8939 314.389 42.7015 313.363 45.9893 313.331C49.8792 313.298 52.7926 314.332 54.7295 316.431C56.3896 318.254 57.2197 320.745 57.2197 323.902C57.2197 325.676 56.9023 327.1 56.2676 328.175C55.6979 329.135 54.7458 330.006 53.4111 330.787C55.3968 331.894 56.821 333.179 57.6836 334.644C58.6764 336.272 59.1729 338.412 59.1729 341.065C59.1729 344.548 57.8138 347.274 55.0957 349.244C52.638 351.018 49.5049 351.905 45.6963 351.905ZM45.916 319.337C42.3516 319.337 40.5856 321.013 40.6182 324.366C40.6344 326.042 42.1725 327.271 45.2324 328.052C46.9414 327.58 48.1214 327.149 48.7725 326.759C49.9281 326.059 50.5059 325.107 50.5059 323.902C50.5059 322.079 50.1152 320.834 49.334 320.167C48.6829 319.613 47.5436 319.337 45.916 319.337ZM45.5498 334.132C43.2061 335.157 41.6598 336.06 40.9111 336.842C39.8206 337.932 39.3079 339.486 39.373 341.505C39.4219 343.083 40.1868 344.272 41.668 345.069C42.8236 345.688 44.1663 345.997 45.6963 345.997C48.2516 345.997 50.0094 345.46 50.9697 344.385C51.7184 343.539 52.0928 342.188 52.0928 340.333C52.0928 338.656 51.4336 337.297 50.1152 336.256C49.1224 335.474 47.6006 334.766 45.5498 334.132Z" fill="#BF0098"/>
<path d="M261.745 498.63C257.139 498.63 253.737 497.003 251.54 493.747C249.782 491.143 248.903 487.725 248.903 483.493C248.903 475.567 252.272 468.698 259.011 462.888C259.857 462.074 260.703 461.268 261.55 460.471C262.738 459.413 263.723 458.884 264.504 458.884C265.399 458.884 266.188 459.193 266.872 459.812C267.556 460.414 267.914 461.146 267.946 462.009C267.979 462.823 267.051 464.133 265.163 465.94C263.812 467.177 262.469 468.406 261.135 469.626C259.637 471.091 258.555 472.523 257.888 473.923C258.767 473.581 259.58 473.329 260.329 473.166C261.094 473.004 261.794 472.922 262.429 472.922C266.498 472.922 269.647 473.988 271.877 476.12C274.107 478.236 275.222 481.19 275.222 484.983C275.222 488.921 274.042 492.152 271.682 494.675C269.191 497.312 265.879 498.63 261.745 498.63ZM261.745 479.514C260.541 479.514 259.458 479.709 258.498 480.1C257.993 480.311 257.066 480.824 255.715 481.638C255.65 482.305 255.617 482.924 255.617 483.493C255.617 486.57 256.138 488.881 257.18 490.427C258.221 491.957 259.784 492.722 261.867 492.722C263.999 492.722 265.651 492.006 266.823 490.573C267.946 489.206 268.508 487.343 268.508 484.983C268.508 483.16 267.946 481.793 266.823 480.881C265.7 479.97 264.007 479.514 261.745 479.514Z" fill="#BF0098"/>
<path d="M402.427 451.955C397.446 451.955 393.776 450.181 391.416 446.632C391.009 446.014 390.806 445.42 390.806 444.85C390.806 443.971 391.156 443.223 391.855 442.604C392.555 441.986 393.353 441.676 394.248 441.676C395.16 441.676 395.941 442.018 396.592 442.702C397.731 443.89 398.35 444.525 398.447 444.606C399.408 445.29 400.734 445.632 402.427 445.632C404.933 445.632 407.025 444.712 408.701 442.873C410.312 441.099 411.118 438.95 411.118 436.427C411.118 434.002 410.711 432.188 409.897 430.983C409.1 429.779 407.887 429.176 406.26 429.176C403.395 429.176 401.092 430.104 399.351 431.96C398.667 432.741 397.975 433.514 397.275 434.279C396.396 435.109 395.461 435.524 394.468 435.524C393.54 435.524 392.751 435.207 392.1 434.572C391.465 433.937 391.147 433.188 391.147 432.326C391.147 431.951 391.286 430.535 391.562 428.078C392.1 423.309 392.368 420.135 392.368 418.556C392.368 418.166 392.222 417.629 391.929 416.945C391.652 416.261 391.514 415.724 391.514 415.334C391.514 414.52 391.929 413.901 392.759 413.478C393.41 413.153 394.175 412.99 395.054 412.99C395.379 412.99 395.868 413.022 396.519 413.088C397.186 413.136 397.682 413.161 398.008 413.161L409.751 413.185C410.044 413.185 410.671 413.136 411.631 413.039C412.591 412.941 413.226 412.892 413.535 412.892C414.414 412.892 415.138 413.177 415.708 413.747C416.278 414.3 416.562 415.016 416.562 415.895C416.562 418.32 414.097 419.533 409.165 419.533C408.774 419.533 408.278 419.525 407.676 419.508C407.09 419.492 406.699 419.484 406.504 419.484H399.229C399.18 420.477 398.976 422.121 398.618 424.416C400.75 423.374 403.298 422.853 406.26 422.853C410.215 422.853 413.218 424.326 415.269 427.272C416.978 429.697 417.832 432.749 417.832 436.427C417.832 440.854 416.465 444.517 413.73 447.414C410.882 450.441 407.114 451.955 402.427 451.955Z" fill="#BF0098"/>
<path d="M466.094 354.533C469.447 356.405 471.123 359.4 471.123 363.518C471.123 366.838 469.894 369.654 467.437 371.965C464.979 374.276 461.992 375.432 458.477 375.432C455.856 375.432 453.496 374.903 451.396 373.845C448.971 372.608 447.336 370.85 446.489 368.571C446.359 368.229 446.294 367.863 446.294 367.473C446.294 366.561 446.66 365.804 447.393 365.202C448.076 364.649 448.857 364.372 449.736 364.372C450.762 364.372 451.584 364.779 452.202 365.593C453.244 366.993 453.846 367.757 454.009 367.888C455.018 368.702 456.507 369.108 458.477 369.108C460.023 369.108 461.374 368.645 462.529 367.717C463.701 366.789 464.287 365.674 464.287 364.372C464.287 360.319 461.561 358.024 456.108 357.487C453.716 357.259 452.52 356.258 452.52 354.484C452.52 353.133 453.447 352.149 455.303 351.53C457.061 351.14 458.81 350.741 460.552 350.334C461.659 349.992 462.489 349.545 463.042 348.991C463.595 348.438 463.88 347.779 463.896 347.014C463.962 344.589 462.065 343.376 458.208 343.376C456.938 343.376 455.547 343.864 454.033 344.841C452.52 345.801 451.486 346.281 450.933 346.281C450.005 346.281 449.215 345.948 448.564 345.28C447.913 344.613 447.588 343.856 447.588 343.01C447.588 341.626 448.955 340.251 451.689 338.884C454.131 337.663 456.117 337.053 457.646 337.053C461.341 337.053 464.312 337.85 466.558 339.445C469.015 341.203 470.244 343.71 470.244 346.965C470.244 348.755 469.894 350.285 469.194 351.555C468.511 352.808 467.477 353.801 466.094 354.533Z" fill="#BF0098"/>
<path d="M493.479 261.43H483.738C478.514 261.43 475.901 260.364 475.901 258.232C475.901 257.337 476.357 256.336 477.269 255.229C478.017 254.383 478.774 253.528 479.539 252.666C482.16 248.922 486.155 243.356 491.526 235.966C492.796 234.274 494.448 233.427 496.482 233.427C497.443 233.427 498.273 233.671 498.973 234.16C499.803 234.746 500.218 235.568 500.218 236.626L500.242 254.985C502.374 255.05 503.798 255.27 504.515 255.644C505.312 256.084 505.711 256.946 505.711 258.232C505.727 259.583 505.109 260.511 503.855 261.015C502.977 261.357 501.772 261.495 500.242 261.43C500.291 263.774 500.283 266.313 500.218 269.047C500.202 269.943 499.909 270.683 499.339 271.269C498.769 271.855 497.996 272.148 497.02 272.148C494.546 272.148 493.366 270.52 493.479 267.265V261.43ZM493.479 244.023C491.901 246.513 489.467 250.167 486.18 254.985H493.479V244.023Z" fill="#BF0098"/>
<path d="M420.315 119.346C419.909 119.346 419.274 119.281 418.411 119.151C417.565 119.004 416.954 118.931 416.58 118.931L409.402 118.906C408.784 118.906 407.848 118.988 406.595 119.151C405.341 119.297 404.397 119.37 403.763 119.37C403.584 119.37 403.323 119.338 402.981 119.273C402.64 119.208 402.379 119.175 402.2 119.175C400.735 119.175 399.743 118.581 399.222 117.393C398.896 116.644 398.733 115.488 398.733 113.926C398.733 110.882 399.409 108.335 400.76 106.284C401.801 104.706 403.486 103.127 405.813 101.548C408.011 100.099 410.2 98.659 412.381 97.2268C414.952 95.355 416.238 93.231 416.238 90.8547C416.238 90.2362 415.726 89.6258 414.7 89.0236C413.675 88.4051 412.674 88.0959 411.697 88.0959C409.972 88.0959 408.141 88.869 406.204 90.4152C404.284 91.9452 402.965 92.7102 402.249 92.7102C401.386 92.7102 400.63 92.4986 399.979 92.0754C399.165 91.5546 398.758 90.8303 398.758 89.9025C398.758 88.9097 399.165 88.0552 399.979 87.3391C401.948 85.5975 403.665 84.328 405.13 83.5305C407.246 82.3749 409.435 81.7971 411.697 81.7971C414.513 81.7971 417.052 82.5376 419.314 84.0187C421.902 85.7115 423.196 87.925 423.196 90.6594C423.196 93.4263 422.562 95.7782 421.292 97.715C420.299 99.2613 418.729 100.767 416.58 102.232C414.546 103.517 412.511 104.795 410.477 106.065C407.384 108.083 405.724 110.386 405.496 112.974C406.391 112.86 407.71 112.73 409.451 112.583C412.918 112.404 415.4 112.315 416.897 112.315C418.297 112.315 419.681 112.616 421.048 113.218C422.741 113.967 423.587 114.927 423.587 116.099C423.587 116.945 423.286 117.686 422.684 118.321C422.049 119.004 421.259 119.346 420.315 119.346Z" fill="#BF0098"/>
<path d="M127.384 435.511C125.772 435.511 124.804 434.835 124.479 433.485C123.827 433.371 123.16 433.314 122.477 433.314C118.554 433.314 116.593 433.851 116.593 434.925C116.593 435.56 117.773 436.414 120.133 437.488C123.355 438.97 125.536 440.125 126.676 440.955C129.036 442.664 130.216 444.593 130.216 446.741C130.216 449.541 128.914 451.665 126.31 453.113C124.21 454.269 121.63 454.847 118.57 454.847C116.406 454.847 114.428 454.513 112.638 453.846C110.196 452.934 108.976 451.592 108.976 449.818C108.976 448.19 109.944 447.376 111.881 447.376C112.63 447.376 113.712 447.612 115.128 448.084C116.544 448.556 117.634 448.792 118.399 448.792C121.703 448.792 123.364 448.125 123.38 446.79C123.38 445.96 122.232 445.041 119.938 444.031C116.585 442.55 114.436 441.484 113.492 440.833C111.197 439.222 110.05 437.261 110.05 434.949C110.05 431.678 111.783 429.472 115.25 428.333C117.285 427.666 120.377 427.332 124.527 427.332C126.155 427.332 127.359 427.544 128.141 427.967C129.215 428.537 129.752 429.586 129.752 431.116C129.752 434.046 128.963 435.511 127.384 435.511Z" fill="#BF0098"/>
<path d="M146.866 454.505C142.976 454.505 139.794 453.577 137.32 451.722C134.586 449.671 133.219 446.782 133.219 443.055C133.219 438.937 134.301 435.454 136.466 432.606C138.875 429.448 142.122 427.869 146.207 427.869C149.039 427.869 151.391 428.325 153.263 429.236C155.72 430.441 156.949 432.313 156.949 434.852C156.949 436.642 155.948 438.229 153.946 439.612C153.035 440.247 151.204 441.175 148.453 442.396L140.226 446.033C141.007 446.88 141.951 447.514 143.058 447.938C144.164 448.361 145.434 448.572 146.866 448.572C149.047 448.572 150.895 448.125 152.408 447.23C153.759 446.432 154.841 446.033 155.655 446.033C157.348 446.033 158.194 446.855 158.194 448.499C158.194 450.355 156.835 451.868 154.117 453.04C151.839 454.017 149.422 454.505 146.866 454.505ZM146.207 433.777C144.693 433.777 143.399 434.282 142.325 435.291C141.251 436.3 140.388 437.814 139.737 439.832C141.576 439.035 143.408 438.245 145.23 437.464C147.428 436.471 149.177 435.552 150.479 434.705C149.389 434.087 147.965 433.777 146.207 433.777Z" fill="#BF0098"/>
<path d="M175.65 451.575C175.569 452.389 175.235 453.056 174.649 453.577C174.063 454.098 173.339 454.359 172.477 454.359C170.833 454.359 169.669 453.512 168.985 451.819C167.228 447.425 164.534 440.866 160.904 432.142C160.693 431.653 160.587 431.19 160.587 430.75C160.587 429.871 160.937 429.131 161.637 428.528C162.353 427.91 163.167 427.601 164.078 427.601C165.478 427.601 166.479 428.244 167.081 429.529C168.009 431.499 169.815 436.105 172.501 443.348C173.364 441.509 174.552 438.709 176.065 434.949C176.521 433.696 177.229 431.946 178.189 429.7C178.857 428.398 179.866 427.747 181.217 427.747C182.128 427.747 182.934 428.048 183.634 428.651C184.35 429.253 184.708 430.001 184.708 430.897C184.708 431.483 183.39 434.705 180.753 440.565C178.604 445.35 176.904 449.02 175.65 451.575Z" fill="#BF0098"/>
<path d="M206.095 455.115C204.093 455.115 202.978 454.131 202.75 452.161C202.522 450.485 202.294 448.8 202.066 447.108C201.822 445.317 201.7 443.633 201.7 442.054C201.7 441.631 201.725 440.906 201.773 439.881C201.839 438.856 201.871 438.131 201.871 437.708C201.871 437.594 201.887 437.309 201.92 436.854C201.952 436.382 201.969 435.999 201.969 435.706C201.969 434.355 201.619 433.68 200.919 433.68C199.422 433.68 197.949 434.559 196.5 436.317C195.068 438.058 193.945 440.272 193.131 442.957C193.098 443.494 193.025 444.21 192.911 445.106C192.813 445.838 192.765 446.554 192.765 447.254C192.765 447.71 192.813 448.402 192.911 449.329C193.025 450.241 193.082 450.924 193.082 451.38C193.082 452.308 192.757 453.073 192.105 453.675C191.471 454.293 190.665 454.603 189.688 454.603C188.712 454.603 187.906 454.293 187.271 453.675C186.637 453.073 186.319 452.308 186.319 451.38C186.319 450.924 186.271 450.241 186.173 449.329C186.075 448.402 186.026 447.71 186.026 447.254C186.026 445.692 186.14 443.519 186.368 440.736C186.596 437.952 186.71 435.779 186.71 434.217C186.71 433.729 186.677 433.004 186.612 432.044C186.563 431.068 186.539 430.343 186.539 429.871C186.539 428.96 186.865 428.211 187.516 427.625C188.183 427.023 188.997 426.722 189.957 426.722C192.089 426.722 193.229 428 193.375 430.555L193.399 430.823C195.776 428.431 198.282 427.235 200.919 427.235C203.995 427.235 206.119 428.52 207.291 431.092C208.072 432.817 208.463 435.397 208.463 438.831V440.565C208.447 441.313 208.438 441.842 208.438 442.152C208.438 443.421 208.609 445.057 208.951 447.059C209.309 449.061 209.488 450.688 209.488 451.942C209.488 452.853 209.163 453.61 208.512 454.212C207.861 454.814 207.055 455.115 206.095 455.115Z" fill="#BF0098"/>
<path d="M225.333 454.505C221.443 454.505 218.261 453.577 215.787 451.722C213.053 449.671 211.686 446.782 211.686 443.055C211.686 438.937 212.768 435.454 214.933 432.606C217.341 429.448 220.589 427.869 224.674 427.869C227.506 427.869 229.858 428.325 231.729 429.236C234.187 430.441 235.416 432.313 235.416 434.852C235.416 436.642 234.415 438.229 232.413 439.612C231.502 440.247 229.671 441.175 226.92 442.396L218.692 446.033C219.474 446.88 220.418 447.514 221.524 447.938C222.631 448.361 223.901 448.572 225.333 448.572C227.514 448.572 229.361 448.125 230.875 447.23C232.226 446.432 233.308 446.033 234.122 446.033C235.815 446.033 236.661 446.855 236.661 448.499C236.661 450.355 235.302 451.868 232.584 453.04C230.305 454.017 227.888 454.505 225.333 454.505ZM224.674 433.777C223.16 433.777 221.866 434.282 220.792 435.291C219.718 436.3 218.855 437.814 218.204 439.832C220.043 439.035 221.874 438.245 223.697 437.464C225.895 436.471 227.644 435.552 228.946 434.705C227.856 434.087 226.432 433.777 224.674 433.777Z" fill="#BF0098"/>
</g>
</g>
</svg>
