<svg width="513" height="512" viewBox="0 0 513 512" fill="none" xmlns="http://www.w3.org/2000/svg">
<g clip-path="url(#clip0_729_106)">
<circle cx="255.08" cy="257" r="255" fill="#00EF38"/>
<path d="M258.221 427.608C340.052 427.608 402.01 361.455 415.832 283.062C415.832 283.062 417.689 275.085 419.064 255.487C420.022 241.84 419.449 228.976 414.593 215.994C381.662 127.954 309.152 86.3917 239.173 86.3917C145.995 86.3917 90.707 161.828 90.707 255.006C90.707 348.184 165.043 427.608 258.221 427.608Z" fill="#FFB7FF" stroke="#DF29AF" stroke-width="3.6" stroke-linejoin="bevel"/>
<path d="M146.958 278.524C199.563 295.646 237.385 306.236 260.421 310.362C298.38 316.689 330.7 314.144 382.618 305.824" stroke="#DF29AF" stroke-width="7.2" stroke-miterlimit="2" stroke-linecap="square"/>
<path d="M157.548 387.861C89.8131 332.78 93.389 257.206 93.2514 252.805C92.1512 178.194 135.955 99.0447 213.867 90.1051C186.223 107.434 112.575 141.129 106.661 240.015C107.899 276.461 111.131 319.508 157.548 387.861Z" fill="#FEA4FD" stroke="#FEA4FD" stroke-width="0.72" stroke-miterlimit="2" stroke-linecap="square"/>
<path d="M178.452 133.978C185.26 128.27 192.687 125.176 200.87 124.557C207.884 124.007 215.105 126.689 222.6 132.602" stroke="#DF29AF" stroke-width="7.2" stroke-linecap="round" stroke-linejoin="round"/>
<path d="M351.33 148.281C359.926 148.144 366.252 150.413 370.24 154.951C373.266 158.39 375.054 162.928 375.467 168.636" stroke="#DF29AF" stroke-width="7.2" stroke-linecap="round" stroke-linejoin="round"/>
<path fill-rule="evenodd" clip-rule="evenodd" d="M223.838 178.469C223.838 167.879 215.723 158.596 204.79 159.421C194.268 158.802 185.741 167.673 185.741 178.469C184.71 189.541 193.443 197.93 204.79 197.517C219.781 196.073 226.382 192.291 223.838 178.469Z" fill="#DF29AF" stroke="#DF29AF" stroke-width="7.2" stroke-linecap="square" stroke-linejoin="bevel"/>
<path fill-rule="evenodd" clip-rule="evenodd" d="M207.059 168.292C207.059 165.129 204.377 165.197 200.87 165.197C197.294 165.197 196.056 167.26 196.056 170.424C196.056 173.587 198.326 174.412 201.901 174.412C203.346 172.487 207.196 172.28 207.059 168.292Z" fill="white" stroke="white" stroke-width="7.2" stroke-linecap="square" stroke-linejoin="bevel"/>
<path fill-rule="evenodd" clip-rule="evenodd" d="M361.782 196.005C361.782 185.896 352.499 176.475 341.977 176.475C331.456 176.475 318.941 180.188 318.941 190.366C318.941 200.474 331.456 215.603 341.977 215.603C352.499 215.603 361.782 206.182 361.782 196.005Z" fill="#DF29AF" stroke="#DF29AF" stroke-width="7.2" stroke-linecap="square" stroke-linejoin="bevel"/>
<path fill-rule="evenodd" clip-rule="evenodd" d="M337.714 187.271C337.714 185.346 337.577 183.42 334.001 183.42C330.425 183.42 327.537 185.965 327.537 187.89C327.537 189.816 329.462 190.985 332.969 190.985C336.614 190.985 337.714 189.128 337.714 187.271Z" fill="white" stroke="white" stroke-width="7.2" stroke-linecap="square" stroke-linejoin="bevel"/>
<path fill-rule="evenodd" clip-rule="evenodd" d="M146.201 257.327C146.201 257.327 145.462 262.089 145.462 266.472C145.462 270.856 146.751 275.756 146.751 275.756C241.855 307.457 281.498 320.729 381.759 303.262L385.627 288.907C284.197 311.463 174.67 267.16 146.201 257.327Z" fill="white"/>
<path fill-rule="evenodd" clip-rule="evenodd" d="M178.985 352.172C190.847 367.558 232.09 375.071 267.023 376.584C301.268 378.028 328.706 372.183 349.267 359.186C314.953 363.174 288.822 365.306 270.805 365.444C253.613 365.237 195.575 357.072 178.985 352.172Z" fill="white"/>
<path fill-rule="evenodd" clip-rule="evenodd" d="M146.201 257.327C146.201 257.327 145.462 262.089 145.462 266.472C145.462 270.856 146.751 275.756 146.751 275.756C241.855 307.457 281.498 320.729 381.759 303.262L385.627 288.907C284.197 311.463 174.67 267.16 146.201 257.327Z" stroke="white" stroke-width="0.72" stroke-miterlimit="2" stroke-linecap="square"/>
<path fill-rule="evenodd" clip-rule="evenodd" d="M178.985 352.172C190.847 367.558 232.09 375.071 267.023 376.584C301.268 378.028 328.706 372.183 349.267 359.186C314.953 363.174 288.822 365.306 270.805 365.444C253.613 365.237 195.575 357.072 178.985 352.172Z" stroke="white" stroke-width="0.72" stroke-miterlimit="2" stroke-linecap="square"/>
<path fill-rule="evenodd" clip-rule="evenodd" d="M147.439 281.549C184.641 292.483 225.488 307.199 265.923 313.594C311.033 320.058 360.82 311.256 381.037 308.437C376.429 319.096 369.278 336.906 355.043 353.272C338.815 355.473 315.572 357.398 296.936 359.048C286.896 345.02 278.713 323.84 243.024 341.582C217.374 307.337 175.427 322.259 160.436 327.416C153.49 312.425 150.327 305.067 147.439 281.549Z" fill="#F24194" stroke="#EE3F8F" stroke-width="0.72" stroke-linecap="square" stroke-linejoin="bevel"/>
<path d="M140.425 245.929C206.715 272.128 258.29 287.738 295.148 292.689C322.93 296.403 354.631 293.515 388.257 287.188C388.257 287.188 388.257 288.177 388.188 289.389C384.996 303.276 380.812 315.601 375.608 326.403C352.336 374.709 308.669 392.565 242.13 383.46C175.484 372.398 139.555 327.162 144.509 248.964M175.633 349.628C220.675 358.292 252.857 362.624 272.249 362.556C290.266 362.487 317.222 360.286 353.118 355.885" stroke="#DF29AF" stroke-width="7.2" stroke-miterlimit="2" stroke-linecap="square"/>
</g>
<defs>
<clipPath id="clip0_729_106">
<rect width="512" height="512" fill="white" transform="translate(0.0795898)"/>
</clipPath>
</defs>
</svg>
