<svg width="512" height="512" viewBox="0 0 512 512" fill="none" xmlns="http://www.w3.org/2000/svg">
<g id="head">
<g id="head_2">
<path id="shape0" d="M259.268 433.487C344.398 433.487 408.855 364.667 423.234 283.113C423.234 283.113 425.165 274.815 426.596 254.426C427.592 240.229 426.996 226.846 421.945 213.341C387.686 121.752 312.252 78.5132 239.452 78.5132C142.517 78.5132 85 156.991 85 253.925C85 350.86 162.333 433.487 259.268 433.487Z" fill="#FFB7FF" stroke="#DF29AF" stroke-width="5" stroke-linejoin="bevel"/>
<path id="shape01" d="M143.518 278.392C198.245 296.205 237.591 307.222 261.557 311.514C301.046 318.096 334.669 315.449 388.681 306.792" stroke="#DF29AF" stroke-width="7.2" stroke-miterlimit="2" stroke-linecap="square"/>
<path id="shape02" d="M154.535 392.138C84.07 334.835 87.79 256.215 87.6469 251.636C86.5023 174.017 132.072 91.6762 213.125 82.3762C184.367 100.404 107.749 135.458 101.597 238.33C102.885 276.245 106.247 321.028 154.535 392.138Z" fill="#FEA4FD" stroke="#FEA4FD" stroke-width="0.72" stroke-miterlimit="2" stroke-linecap="square"/>
<path id="shape3" d="M176.283 128.018C183.365 122.08 191.091 118.861 199.604 118.217C206.901 117.645 214.413 120.435 222.211 126.587" stroke="#DF29AF" stroke-width="6" stroke-linecap="round" stroke-linejoin="round"/>
<path id="shape4" d="M356.131 142.898C365.073 142.755 371.654 145.115 375.804 149.837C378.951 153.414 380.811 158.135 381.241 164.073" stroke="#DF29AF" stroke-width="6" stroke-linecap="round" stroke-linejoin="round"/>
<path id="shape5" fill-rule="evenodd" clip-rule="evenodd" d="M223.498 174.303C223.498 163.286 215.057 153.628 203.682 154.487C192.737 153.843 183.866 163.072 183.866 174.303C182.793 185.821 191.878 194.548 203.682 194.119C219.278 192.617 226.145 188.682 223.498 174.303Z" fill="#DF29AF" stroke="#DF29AF" stroke-width="7.2" stroke-linecap="square" stroke-linejoin="bevel"/>
<path id="shape6" fill-rule="evenodd" clip-rule="evenodd" d="M206.043 163.716C206.043 160.425 203.253 160.496 199.605 160.496C195.885 160.496 194.597 162.642 194.597 165.933C194.597 169.224 196.958 170.082 200.678 170.082C202.18 168.079 206.186 167.865 206.043 163.716Z" fill="white" stroke="white" stroke-width="7.2" stroke-linecap="square" stroke-linejoin="bevel"/>
<path id="shape7" fill-rule="evenodd" clip-rule="evenodd" d="M367.004 192.545C367.004 182.029 357.347 172.229 346.401 172.229C335.456 172.229 322.436 176.092 322.436 186.679C322.436 197.195 335.456 212.934 346.401 212.934C357.347 212.934 367.004 203.133 367.004 192.545Z" fill="#DF29AF" stroke="#DF29AF" stroke-width="7.2" stroke-linecap="square" stroke-linejoin="bevel"/>
<path id="shape8" fill-rule="evenodd" clip-rule="evenodd" d="M341.966 183.46C341.966 181.457 341.823 179.454 338.103 179.454C334.383 179.454 331.378 182.101 331.378 184.104C331.378 186.107 333.381 187.323 337.03 187.323C340.821 187.323 341.966 185.392 341.966 183.46Z" fill="white" stroke="white" stroke-width="7.2" stroke-linecap="square" stroke-linejoin="bevel"/>
<path id="shape10" d="M225.573 404.013C240.095 409.736 254.045 412.168 267.28 411.238C281.802 410.237 292.318 408.019 298.685 404.514" stroke="#DF29AF" stroke-width="5" stroke-linecap="round" stroke-linejoin="round"/>
<path id="shape13" d="M159.829 330.829C182.793 322.531 202.108 321.1 217.704 326.465C230.08 330.686 241.741 342.49 252.686 361.805" stroke="#DF29AF" stroke-width="7.2" stroke-miterlimit="2" stroke-linecap="square"/>
<path id="shape14" d="M244.03 346.138C256.335 339.843 265.778 337.554 272.431 339.199C280.729 341.274 288.885 348.785 296.825 361.805" stroke="#DF29AF" stroke-width="7.2" stroke-miterlimit="2" stroke-linecap="square"/>
<g id="shape03">
<path fill-rule="evenodd" clip-rule="evenodd" d="M142.731 256.34C142.731 256.34 141.962 261.294 141.962 265.854C141.962 270.415 143.304 275.512 143.304 275.512C242.241 308.491 283.483 322.298 387.786 304.127L391.81 289.194C286.291 312.658 172.348 266.57 142.731 256.34Z" fill="white"/>
<path fill-rule="evenodd" clip-rule="evenodd" d="M176.837 355.009C189.178 371.016 232.083 378.831 268.424 380.405C304.051 381.908 332.594 375.827 353.984 362.306C318.287 366.455 291.102 368.673 272.359 368.816C254.474 368.601 194.096 360.106 176.837 355.009Z" fill="white"/>
<path fill-rule="evenodd" clip-rule="evenodd" d="M142.731 256.34C142.731 256.34 141.962 261.294 141.962 265.854C141.962 270.415 143.304 275.512 143.304 275.512C242.241 308.491 283.483 322.298 387.786 304.127L391.81 289.194C286.291 312.658 172.348 266.57 142.731 256.34Z" stroke="white" stroke-width="0.72" stroke-miterlimit="2" stroke-linecap="square"/>
<path fill-rule="evenodd" clip-rule="evenodd" d="M176.837 355.009C189.178 371.016 232.083 378.831 268.424 380.405C304.051 381.908 332.594 375.827 353.984 362.306C318.287 366.455 291.102 368.673 272.359 368.816C254.474 368.601 194.096 360.106 176.837 355.009Z" stroke="white" stroke-width="0.72" stroke-miterlimit="2" stroke-linecap="square"/>
</g>
<path id="shape2" fill-rule="evenodd" clip-rule="evenodd" d="M160.044 334.12C162.977 338.341 165.481 341.989 166.768 343.778C167.555 344.922 169.129 346.925 171.347 349.787C196.099 354.866 222.139 358.801 249.395 361.734C241.598 346.21 231.511 335.551 218.991 329.685C199.461 319.526 158.47 331.831 160.044 334.12Z" fill="#F04DDC" stroke="#F04DDC" stroke-width="0.72" stroke-miterlimit="2" stroke-linecap="square"/>
<path id="shape04" fill-rule="evenodd" clip-rule="evenodd" d="M246.892 347.784C249.825 352.005 250.039 352.577 251.327 354.365C252.114 355.51 253.115 359.23 255.762 362.235C273.719 364.595 275.364 363.308 294.035 362.306C288.098 352.792 280.872 344.851 275.221 343.062C266.779 338.484 256.049 343.635 246.892 347.784Z" fill="#F04DDC" stroke="#F04DDC" stroke-width="0.72" stroke-miterlimit="2" stroke-linecap="square"/>
<path id="shape3_1_" fill-rule="evenodd" clip-rule="evenodd" d="M144.019 281.539C182.721 292.914 225.215 308.223 267.28 314.876C314.209 321.601 366.003 312.444 387.035 309.511C382.242 320.599 374.802 339.128 359.994 356.154C343.111 358.443 318.931 360.446 299.544 362.163C289.099 347.569 280.586 325.535 243.458 343.992C216.774 308.366 173.135 323.89 157.54 329.255C150.315 313.66 147.024 306.005 144.019 281.539Z" fill="#F24194" stroke="#EE3F8F" stroke-width="0.72" stroke-linecap="square" stroke-linejoin="bevel"/>
<path id="shape9" d="M136.722 244.482C205.685 271.738 259.339 287.978 297.684 293.128C326.585 296.992 359.564 293.987 394.547 287.405C394.547 287.405 394.547 288.434 394.475 289.695C391.154 304.141 386.801 316.963 381.387 328.201C357.177 378.455 311.749 397.03 242.528 387.559C173.195 376.051 135.817 328.991 140.971 247.64M173.35 352.362C220.208 361.376 253.688 365.883 273.861 365.812C292.605 365.74 320.648 363.451 357.991 358.872" stroke="#DF29AF" stroke-width="6" stroke-miterlimit="2" stroke-linecap="square"/>
</g>
</g>
</svg>
